<svg width="400" height="400" viewBox="0 0 400 400" fill="none" xmlns="http://www.w3.org/2000/svg">
<rect width="400" height="400" fill="#E5E5E5"/>
<path d="M350 200C350 282.843 282.843 350 200 350C117.157 350 50 282.843 50 200C50 117.157 117.157 50 200 50C282.843 50 350 117.157 350 200Z" fill="#001D57"/>
<rect y="150" width="400" height="100" rx="25" fill="#001D57"/>
<rect x="150" y="400" width="400" height="100" rx="25" transform="rotate(-90 150 400)" fill="#001D57"/>
<rect x="23.2233" y="306.066" width="400" height="100" rx="25" transform="rotate(-45 23.2233 306.066)" fill="#001D57"/>
<rect x="306.066" y="376.777" width="400" height="100" rx="25" transform="rotate(-135 306.066 376.777)" fill="#001D57"/>
<circle cx="200" cy="200" r="100" fill="white"/>
</svg>
